<mxfile host="Electron" modified="2024-11-30T18:49:29.939Z" agent="Mozilla/5.0 (Windows NT 10.0; Win64; x64) AppleWebKit/537.36 (KHTML, like Gecko) draw.io/21.2.1 Chrome/112.0.5615.87 Electron/24.1.2 Safari/537.36" etag="vXv_9g9kfIDloKPx83q8" version="21.2.1" type="device">
  <diagram name="Page-1" id="74e2e168-ea6b-b213-b513-2b3c1d86103e">
    <mxGraphModel dx="1276" dy="606" grid="1" gridSize="10" guides="1" tooltips="1" connect="1" arrows="1" fold="1" page="1" pageScale="1" pageWidth="1100" pageHeight="850" background="none" math="0" shadow="0">
      <root>
        <mxCell id="0" />
        <mxCell id="1" parent="0" />
        <mxCell id="77e6c97f196da883-1" value="Vehicle Pickup and Identity Verification" style="swimlane;html=1;childLayout=stackLayout;startSize=20;rounded=0;shadow=0;labelBackgroundColor=none;strokeWidth=1;fontFamily=Verdana;fontSize=8;align=center;" parent="1" vertex="1">
          <mxGeometry x="70" y="40" width="1030" height="750" as="geometry" />
        </mxCell>
        <mxCell id="77e6c97f196da883-2" value="Customer" style="swimlane;html=1;startSize=20;" parent="77e6c97f196da883-1" vertex="1">
          <mxGeometry y="20" width="330" height="730" as="geometry" />
        </mxCell>
        <mxCell id="nUuaQa_SXL4i8u1igoKf-3" value="" style="edgeStyle=orthogonalEdgeStyle;rounded=0;orthogonalLoop=1;jettySize=auto;html=1;" edge="1" parent="77e6c97f196da883-2" source="nUuaQa_SXL4i8u1igoKf-1" target="nUuaQa_SXL4i8u1igoKf-2">
          <mxGeometry relative="1" as="geometry" />
        </mxCell>
        <mxCell id="nUuaQa_SXL4i8u1igoKf-1" value="" style="ellipse;fillColor=strokeColor;html=1;" vertex="1" parent="77e6c97f196da883-2">
          <mxGeometry x="140" y="30" width="30" height="30" as="geometry" />
        </mxCell>
        <mxCell id="nUuaQa_SXL4i8u1igoKf-5" style="edgeStyle=orthogonalEdgeStyle;rounded=0;orthogonalLoop=1;jettySize=auto;html=1;" edge="1" parent="77e6c97f196da883-2" source="nUuaQa_SXL4i8u1igoKf-2">
          <mxGeometry relative="1" as="geometry">
            <mxPoint x="440" y="110" as="targetPoint" />
          </mxGeometry>
        </mxCell>
        <mxCell id="nUuaQa_SXL4i8u1igoKf-2" value="arrives at the office" style="html=1;align=center;verticalAlign=top;rounded=1;absoluteArcSize=1;arcSize=10;dashed=0;whiteSpace=wrap;" vertex="1" parent="77e6c97f196da883-2">
          <mxGeometry x="85" y="90" width="140" height="40" as="geometry" />
        </mxCell>
        <mxCell id="nUuaQa_SXL4i8u1igoKf-18" value="" style="edgeStyle=orthogonalEdgeStyle;rounded=0;orthogonalLoop=1;jettySize=auto;html=1;" edge="1" parent="77e6c97f196da883-2" source="nUuaQa_SXL4i8u1igoKf-14" target="nUuaQa_SXL4i8u1igoKf-17">
          <mxGeometry relative="1" as="geometry" />
        </mxCell>
        <mxCell id="nUuaQa_SXL4i8u1igoKf-14" value="signs rental agreement" style="html=1;align=center;verticalAlign=top;rounded=1;absoluteArcSize=1;arcSize=10;dashed=0;whiteSpace=wrap;" vertex="1" parent="77e6c97f196da883-2">
          <mxGeometry x="100" y="335" width="140" height="40" as="geometry" />
        </mxCell>
        <mxCell id="nUuaQa_SXL4i8u1igoKf-17" value="checks the vehicle" style="rounded=1;whiteSpace=wrap;html=1;" vertex="1" parent="77e6c97f196da883-2">
          <mxGeometry x="97.5" y="410" width="145" height="50" as="geometry" />
        </mxCell>
        <mxCell id="nUuaQa_SXL4i8u1igoKf-29" style="edgeStyle=orthogonalEdgeStyle;rounded=0;orthogonalLoop=1;jettySize=auto;html=1;" edge="1" parent="77e6c97f196da883-2" source="nUuaQa_SXL4i8u1igoKf-19" target="nUuaQa_SXL4i8u1igoKf-27">
          <mxGeometry relative="1" as="geometry" />
        </mxCell>
        <mxCell id="nUuaQa_SXL4i8u1igoKf-19" value="takes the vehicle" style="html=1;align=center;verticalAlign=top;rounded=1;absoluteArcSize=1;arcSize=10;dashed=0;whiteSpace=wrap;" vertex="1" parent="77e6c97f196da883-2">
          <mxGeometry x="100" y="500" width="140" height="40" as="geometry" />
        </mxCell>
        <mxCell id="nUuaQa_SXL4i8u1igoKf-27" value="" style="ellipse;html=1;shape=endState;fillColor=strokeColor;" vertex="1" parent="77e6c97f196da883-2">
          <mxGeometry x="155" y="660" width="30" height="30" as="geometry" />
        </mxCell>
        <mxCell id="77e6c97f196da883-3" value="Customer Service Staff" style="swimlane;html=1;startSize=20;" parent="77e6c97f196da883-1" vertex="1">
          <mxGeometry x="330" y="20" width="330" height="730" as="geometry" />
        </mxCell>
        <mxCell id="nUuaQa_SXL4i8u1igoKf-4" value="accesses reservation details in the system" style="html=1;align=center;verticalAlign=top;rounded=1;absoluteArcSize=1;arcSize=10;dashed=0;whiteSpace=wrap;" vertex="1" parent="77e6c97f196da883-3">
          <mxGeometry x="112.5" y="80" width="145" height="60" as="geometry" />
        </mxCell>
        <mxCell id="nUuaQa_SXL4i8u1igoKf-13" value="" style="edgeStyle=orthogonalEdgeStyle;rounded=0;orthogonalLoop=1;jettySize=auto;html=1;" edge="1" parent="77e6c97f196da883-3" source="nUuaQa_SXL4i8u1igoKf-8" target="nUuaQa_SXL4i8u1igoKf-12">
          <mxGeometry relative="1" as="geometry" />
        </mxCell>
        <mxCell id="nUuaQa_SXL4i8u1igoKf-8" value="&amp;nbsp;verifies customer identity" style="rounded=1;whiteSpace=wrap;html=1;" vertex="1" parent="77e6c97f196da883-3">
          <mxGeometry x="105" y="180" width="160" height="50" as="geometry" />
        </mxCell>
        <mxCell id="nUuaQa_SXL4i8u1igoKf-33" style="edgeStyle=orthogonalEdgeStyle;rounded=0;orthogonalLoop=1;jettySize=auto;html=1;" edge="1" parent="77e6c97f196da883-3" source="nUuaQa_SXL4i8u1igoKf-12">
          <mxGeometry relative="1" as="geometry">
            <mxPoint x="-140" y="680" as="targetPoint" />
            <Array as="points">
              <mxPoint x="280" y="295" />
              <mxPoint x="280" y="680" />
            </Array>
          </mxGeometry>
        </mxCell>
        <mxCell id="nUuaQa_SXL4i8u1igoKf-12" value="Identity verified?" style="rhombus;" vertex="1" parent="77e6c97f196da883-3">
          <mxGeometry x="120" y="260" width="130" height="70" as="geometry" />
        </mxCell>
        <mxCell id="nUuaQa_SXL4i8u1igoKf-21" value="Staff hands over the vehicle" style="html=1;align=center;verticalAlign=top;rounded=1;absoluteArcSize=1;arcSize=10;dashed=0;whiteSpace=wrap;" vertex="1" parent="77e6c97f196da883-3">
          <mxGeometry x="105" y="420" width="140" height="40" as="geometry" />
        </mxCell>
        <mxCell id="nUuaQa_SXL4i8u1igoKf-34" value="FALSE" style="text;html=1;align=center;verticalAlign=middle;resizable=0;points=[];autosize=1;strokeColor=none;fillColor=none;" vertex="1" parent="77e6c97f196da883-3">
          <mxGeometry x="240" y="268" width="60" height="30" as="geometry" />
        </mxCell>
        <mxCell id="77e6c97f196da883-4" value="System" style="swimlane;html=1;startSize=20;" parent="77e6c97f196da883-1" vertex="1">
          <mxGeometry x="660" y="20" width="370" height="730" as="geometry" />
        </mxCell>
        <mxCell id="nUuaQa_SXL4i8u1igoKf-6" value="displays reservation details" style="html=1;align=center;verticalAlign=top;rounded=1;absoluteArcSize=1;arcSize=10;dashed=0;whiteSpace=wrap;" vertex="1" parent="77e6c97f196da883-4">
          <mxGeometry x="110" y="90" width="140" height="40" as="geometry" />
        </mxCell>
        <mxCell id="nUuaQa_SXL4i8u1igoKf-25" value="change vechile&#39;s state from &#39;available&#39; to &#39;unavailable&#39;" style="html=1;align=center;verticalAlign=top;rounded=1;absoluteArcSize=1;arcSize=10;dashed=0;whiteSpace=wrap;" vertex="1" parent="77e6c97f196da883-4">
          <mxGeometry x="112.5" y="420" width="145" height="60" as="geometry" />
        </mxCell>
        <mxCell id="nUuaQa_SXL4i8u1igoKf-10" style="edgeStyle=orthogonalEdgeStyle;rounded=0;orthogonalLoop=1;jettySize=auto;html=1;entryX=0;entryY=0.25;entryDx=0;entryDy=0;" edge="1" parent="77e6c97f196da883-1" source="nUuaQa_SXL4i8u1igoKf-4" target="nUuaQa_SXL4i8u1igoKf-6">
          <mxGeometry relative="1" as="geometry">
            <Array as="points">
              <mxPoint x="620" y="120" />
              <mxPoint x="620" y="120" />
            </Array>
          </mxGeometry>
        </mxCell>
        <mxCell id="nUuaQa_SXL4i8u1igoKf-11" style="edgeStyle=orthogonalEdgeStyle;rounded=0;orthogonalLoop=1;jettySize=auto;html=1;entryX=1;entryY=0.5;entryDx=0;entryDy=0;" edge="1" parent="77e6c97f196da883-1" source="nUuaQa_SXL4i8u1igoKf-6" target="nUuaQa_SXL4i8u1igoKf-8">
          <mxGeometry relative="1" as="geometry" />
        </mxCell>
        <mxCell id="nUuaQa_SXL4i8u1igoKf-15" style="edgeStyle=orthogonalEdgeStyle;rounded=0;orthogonalLoop=1;jettySize=auto;html=1;" edge="1" parent="77e6c97f196da883-1" source="nUuaQa_SXL4i8u1igoKf-12" target="nUuaQa_SXL4i8u1igoKf-14">
          <mxGeometry relative="1" as="geometry" />
        </mxCell>
        <mxCell id="nUuaQa_SXL4i8u1igoKf-22" style="edgeStyle=orthogonalEdgeStyle;rounded=0;orthogonalLoop=1;jettySize=auto;html=1;entryX=0;entryY=0.25;entryDx=0;entryDy=0;" edge="1" parent="77e6c97f196da883-1" source="nUuaQa_SXL4i8u1igoKf-17" target="nUuaQa_SXL4i8u1igoKf-21">
          <mxGeometry relative="1" as="geometry" />
        </mxCell>
        <mxCell id="nUuaQa_SXL4i8u1igoKf-24" style="edgeStyle=orthogonalEdgeStyle;rounded=0;orthogonalLoop=1;jettySize=auto;html=1;entryX=1;entryY=0.25;entryDx=0;entryDy=0;" edge="1" parent="77e6c97f196da883-1" source="nUuaQa_SXL4i8u1igoKf-21" target="nUuaQa_SXL4i8u1igoKf-19">
          <mxGeometry relative="1" as="geometry" />
        </mxCell>
        <mxCell id="nUuaQa_SXL4i8u1igoKf-26" style="edgeStyle=orthogonalEdgeStyle;rounded=0;orthogonalLoop=1;jettySize=auto;html=1;entryX=0;entryY=0.25;entryDx=0;entryDy=0;" edge="1" parent="77e6c97f196da883-1" source="nUuaQa_SXL4i8u1igoKf-21" target="nUuaQa_SXL4i8u1igoKf-25">
          <mxGeometry relative="1" as="geometry" />
        </mxCell>
        <mxCell id="nUuaQa_SXL4i8u1igoKf-32" style="edgeStyle=orthogonalEdgeStyle;rounded=0;orthogonalLoop=1;jettySize=auto;html=1;entryX=1;entryY=0.5;entryDx=0;entryDy=0;" edge="1" parent="77e6c97f196da883-1" source="nUuaQa_SXL4i8u1igoKf-25" target="nUuaQa_SXL4i8u1igoKf-27">
          <mxGeometry relative="1" as="geometry">
            <mxPoint x="845" y="710" as="targetPoint" />
            <Array as="points">
              <mxPoint x="860" y="710" />
              <mxPoint x="185" y="710" />
            </Array>
          </mxGeometry>
        </mxCell>
        <mxCell id="nUuaQa_SXL4i8u1igoKf-16" value="TRUE" style="text;html=1;align=center;verticalAlign=middle;resizable=0;points=[];autosize=1;strokeColor=none;fillColor=none;" vertex="1" parent="1">
          <mxGeometry x="440" y="328" width="60" height="30" as="geometry" />
        </mxCell>
      </root>
    </mxGraphModel>
  </diagram>
</mxfile>
